# xmcd CD database file
#
# Track frame offsets:
#	150
#	31787
#	58547
#	89890
#	111247
#	139360
#	161487
#	195295
#	229917
#	255225
#	278465
#
# Disc length: 4106 seconds
#
# Revision: 0
# Processed by: cddbd v1.4PL0 Copyright (c) Steve Scherf et al.
# Submitted via: CDex 1.50
#
DISCID=8e10080b
DTITLE=Dominick Farinacci Quartet - Say It
DYEAR=2003
DGENRE=Jazz
TTITLE0=Two Doors Down
TTITLE1=The Ruby And The Pearl
TTITLE2=I'm A Fool To Want You
TTITLE3=Black Orpheus
TTITLE4=Night Passing
TTITLE5=Say It (Over And Over Again)
TTITLE6=The Summer Knows
TTITLE7=What's New
TTITLE8=Just In Time
TTITLE9=Toward Evening
TTITLE10=Ghana
EXTD=YEAR: 2003
EXTT0=
EXTT1=
EXTT2=
EXTT3=
EXTT4=
EXTT5=
EXTT6=
EXTT7=
EXTT8=
EXTT9=
EXTT10=
PLAYORDER=
